# xmcd
#
# Track frame offsets:
#	150
#	24921
#	41308
#	72377
#	93066
#	107119
#	132340
#	155653
#	172819
#	194053
#	213875
#	235452
#
# Disc length: 3515
#
# Revision: 1
# Processed by: cddbd v1.5.1PL0 Copyright (c) Steve Scherf et al.
# Submitted via: CDex 1.51
# Normalized: r0:DSETVAR1
#
DISCID=9d0db90c
DTITLE=Various Artist - Las Estrellas De La Salsa II
DYEAR=1900
DGENRE=Salsa
TTITLE0=Fania All Stars and Celia Cruz - Bamboleo
TTITLE1=Oscar D´leon - Qué Bueno Baila Usted
TTITLE2=Willie Colón - El Gran Varón
TTITLE3=Roberto Blades - El Casco
TTITLE4=Celia Cruz - Azúcar Negra
TTITLE5=Johnny Pacheco - El Tumbaíto
TTITLE6=Louie Ramírez Y La Superbanda - Feo Pero Sabroso
TTITLE7=Willie Rosario - Atízame El Fogón
TTITLE8=Ray Barretto - Irresistible
TTITLE9=Eddie Palmieri - La Verdad
TTITLE10=Sonora Ponceña - Canción
TTITLE11=Orquesta Guayaba - Sabor Isleño
EXTD=
EXTT0=
EXTT1=
EXTT2=
EXTT3=
EXTT4=
EXTT5=
EXTT6=
EXTT7=
EXTT8=
EXTT9=
EXTT10=
EXTT11=
PLAYORDER=
